# xmcd
#
# Track frame offsets: 
#        150
#        18097
#        36791
#        50984
#        67265
#        84687
#        103587
#        119008
#        134314
#        152910
#        166721
#        185551
#        199993
#
# Disc length: 2785 seconds
#
# Revision: 0
# Processed by: cddbd v1.5.2PL0 Copyright (c) Steve Scherf et al.
# Submitted via: ExactAudioCopy v1.0b3
#
DISCID=bc0adf0d
DTITLE=Anita and Alexandra Hofmann - Kuschelmomente
DYEAR=2014
DGENRE=Vocal
TTITLE0=Mein Engel
TTITLE1=Kuschelzeit
TTITLE2=Glücksstern
TTITLE3=Ich bin da
TTITLE4=Wintermärchen
TTITLE5=Ich schick Dir 'nen Engel
TTITLE6=Hallelujah
TTITLE7=Tausendmal
TTITLE8=Wieder Land in Sicht
TTITLE9=3 Minuten Glück
TTITLE10=Hand in Hand
TTITLE11=You Are My Sunshine
TTITLE12=Kuschelmomente am Kamin
EXTD=
EXTT0=
EXTT1=
EXTT2=
EXTT3=
EXTT4=
EXTT5=
EXTT6=
EXTT7=
EXTT8=
EXTT9=
EXTT10=
EXTT11=
EXTT12=
PLAYORDER=
